<!DOCTYPE svg PUBLIC "-//W3C//DTD SVG 1.1//EN" "http://www.w3.org/Graphics/SVG/1.1/DTD/svg11.dtd">
<svg xmlns="http://www.w3.org/2000/svg" xmlns:xlink="http://www.w3.org/1999/xlink" width="721px" height="193px" version="1.1"><defs/><g transform="translate(0.5,0.5)"><rect x="200" y="0" width="160" height="34" fill="#ffffff" stroke="#000000" pointer-events="none"/><path d="M 200 26 L 200 0 L 360 0 L 360 26 Z" fill="#584c44" stroke="#000000" stroke-miterlimit="10" pointer-events="none"/><g fill="#FFFFFF" font-family="Helvetica" font-weight="bold" font-style="italic" text-anchor="middle" font-size="10px"><text x="279.5" y="16.5">XAResource</text></g><path d="M 200 30 L 360 30" fill="none" stroke="#000000" stroke-miterlimit="10" pointer-events="none"/><rect x="0" y="78" width="160" height="34" fill="#ffffff" stroke="#000000" pointer-events="none"/><path d="M 0 104 L 0 78 L 160 78 L 160 104 Z" fill="#584c44" stroke="#000000" stroke-miterlimit="10" pointer-events="none"/><g fill="#FFFFFF" font-family="Helvetica" font-weight="bold" text-anchor="middle" font-size="10px"><text x="79.5" y="94.5">NativeXAResource</text></g><path d="M 0 108 L 160 108" fill="none" stroke="#000000" stroke-miterlimit="10" pointer-events="none"/><rect x="400" y="78" width="160" height="34" fill="#ffffff" stroke="#000000" pointer-events="none"/><path d="M 400 104 L 400 78 L 560 78 L 560 104 Z" fill="#584c44" stroke="#000000" stroke-miterlimit="10" pointer-events="none"/><g fill="#FFFFFF" font-family="Helvetica" font-weight="bold" text-anchor="middle" font-size="10px"><text x="479.5" y="94.5">AcquiredXAResource</text></g><path d="M 400 108 L 560 108" fill="none" stroke="#000000" stroke-miterlimit="10" pointer-events="none"/><rect x="240" y="158" width="160" height="34" fill="#ffffff" stroke="#000000" pointer-events="none"/><path d="M 240 184 L 240 158 L 400 158 L 400 184 Z" fill="#584c44" stroke="#000000" stroke-miterlimit="10" pointer-events="none"/><g fill="#FFFFFF" font-family="Helvetica" font-weight="bold" text-anchor="middle" font-size="10px"><text x="319.5" y="174.5">MySQLXAResource</text></g><path d="M 240 188 L 400 188" fill="none" stroke="#000000" stroke-miterlimit="10" pointer-events="none"/><rect x="560" y="158" width="160" height="34" fill="#ffffff" stroke="#000000" pointer-events="none"/><path d="M 560 184 L 560 158 L 720 158 L 720 184 Z" fill="#584c44" stroke="#000000" stroke-miterlimit="10" pointer-events="none"/><g fill="#FFFFFF" font-family="Helvetica" font-weight="bold" text-anchor="middle" font-size="10px"><text x="639.5" y="174.5">PostgreSQLXAResource</text></g><path d="M 560 188 L 720 188" fill="none" stroke="#000000" stroke-miterlimit="10" pointer-events="none"/><path d="M 320 158 L 388.3 111.9" fill="none" stroke="#000000" stroke-miterlimit="10" stroke-dasharray="1 1" pointer-events="none"/><path d="M 399.07 104.63 L 391.93 117.29 L 384.66 106.51 Z" fill="none" stroke="#000000" stroke-miterlimit="10" pointer-events="none"/><path d="M 640 158 L 571.7 111.9" fill="none" stroke="#000000" stroke-miterlimit="10" stroke-dasharray="1 1" pointer-events="none"/><path d="M 560.93 104.63 L 575.34 106.51 L 568.07 117.29 Z" fill="none" stroke="#000000" stroke-miterlimit="10" pointer-events="none"/><path d="M 80 78 L 187.05 31.61" fill="none" stroke="#000000" stroke-miterlimit="10" stroke-dasharray="1 1" pointer-events="none"/><path d="M 198.97 26.44 L 189.63 37.58 L 184.46 25.65 Z" fill="none" stroke="#000000" stroke-miterlimit="10" pointer-events="none"/><path d="M 480 78 L 372.95 31.61" fill="none" stroke="#000000" stroke-miterlimit="10" stroke-dasharray="1 1" pointer-events="none"/><path d="M 361.03 26.44 L 375.54 25.65 L 370.37 37.58 Z" fill="none" stroke="#000000" stroke-miterlimit="10" pointer-events="none"/></g></svg>